<?xml version="1.0" encoding="UTF-8" standalone="no" ?>
<!DOCTYPE svg PUBLIC "-//W3C//DTD SVG 1.1//EN" "http://www.w3.org/Graphics/SVG/1.1/DTD/svg11.dtd">
<svg xmlns="http://www.w3.org/2000/svg" xmlns:xlink="http://www.w3.org/1999/xlink" version="1.1" width="1080" height="1080" viewBox="0 0 1080 1080" xml:space="preserve">
<desc>Created with Fabric.js 5.2.4</desc>
<defs>
</defs>
<g transform="matrix(1 0 0 1 540 540)" id="7990c272-acee-41b6-9487-b39a92f55bb3"  >
<rect style="stroke: none; stroke-width: 1; stroke-dasharray: none; stroke-linecap: butt; stroke-dashoffset: 0; stroke-linejoin: miter; stroke-miterlimit: 4; fill: rgb(255,255,255); fill-rule: nonzero; opacity: 1; visibility: hidden;" vector-effect="non-scaling-stroke"  x="-540" y="-540" rx="0" ry="0" width="1080" height="1080" />
</g>
<g transform="matrix(1 0 0 1 540 540)" id="d0786022-c2bb-4b25-b554-0f17394ec959"  >
</g>
<g transform="matrix(2.6 0 0 2.6 540 502.92)"  >
<g style=""   >
		<g transform="matrix(1 0 0 1 -99.13 10.98)"  >
<path style="stroke: none; stroke-width: 1; stroke-dasharray: none; stroke-linecap: butt; stroke-dashoffset: 0; stroke-linejoin: miter; stroke-miterlimit: 4; fill: rgb(255,255,255); fill-rule: nonzero; opacity: 1;" vector-effect="non-scaling-stroke"  transform=" translate(-108.71, -107.89)" d="M 65.89 121.54 C 44.58 145.12 23.04 164.77 3.3100000000000023 190.55 C 27.580000000000002 167.78 48.97 154.46 74.69 134.59 L 65.89 121.54 z M 213.54000000000002 57.93000000000001 L 214.10000000000002 43.45 L 166.65000000000003 25.220000000000002 C 146.39000000000004 41.69 126.87000000000003 59.2 108.02000000000004 77.64 L 118.35000000000004 103.1 C 148.97000000000003 80.28 177.02000000000004 68.75999999999999 213.54000000000002 57.92999999999999 z" stroke-linecap="round" />
</g>
		<g transform="matrix(1 0 0 1 -82.52 -0.88)"  >
<path style="stroke: none; stroke-width: 1; stroke-dasharray: none; stroke-linecap: butt; stroke-dashoffset: 0; stroke-linejoin: miter; stroke-miterlimit: 4; fill: rgb(255,255,255); fill-rule: nonzero; opacity: 1;" vector-effect="non-scaling-stroke"  transform=" translate(-125.32, -96.02)" d="M 87.29 116.82 L 84.45 12.3 L 99.79 19.42 C 92.92 78.42 120.64000000000001 130.79000000000002 166.2 179.75 L 87.28999999999999 116.82 z" stroke-linecap="round" />
</g>
		<g transform="matrix(1 0 0 1 -123.25 1)"  >
<path style="stroke: none; stroke-width: 1; stroke-dasharray: none; stroke-linecap: butt; stroke-dashoffset: 0; stroke-linejoin: miter; stroke-miterlimit: 4; fill: rgb(255,255,255); fill-rule: nonzero; opacity: 1;" vector-effect="non-scaling-stroke"  transform=" translate(-84.59, -97.9)" d="M 169.18 182.07 C 115.72 130.08 90.04 69.63 87.94 2 L 17.59 66.49 C 62.209999999999994 115.64999999999999 113.39 153.01 169.18 182.07 M 62.85 118.02 C 41.07 142.12 20.17 167.45 0 193.8 C 24.81 170.53 50.16 148.34 76.45 128.03000000000003 L 62.85 118.02000000000002 z" stroke-linecap="round" />
</g>
		<g transform="matrix(1 0 0 1 -44.75 -37.52)"  >
<path style="stroke: none; stroke-width: 1; stroke-dasharray: none; stroke-linecap: butt; stroke-dashoffset: 0; stroke-linejoin: miter; stroke-miterlimit: 4; fill: rgb(255,255,255); fill-rule: nonzero; opacity: 1;" vector-effect="non-scaling-stroke"  transform=" translate(-163.09, -59.38)" d="M 220.27 44.71 L 165.83 19.580000000000002 C 145.12 36.41 125.18 54.3 105.91000000000001 73.15 L 116.47000000000001 99.17 C 149.22000000000003 77.31 183.59000000000003 58.7 220.27 44.71" stroke-linecap="round" />
</g>
		<g transform="matrix(1 0 0 1 84.26 16.26)"  >
<path style="stroke: none; stroke-width: 1; stroke-dasharray: none; stroke-linecap: butt; stroke-dashoffset: 0; stroke-linejoin: miter; stroke-miterlimit: 4; fill: rgb(255,255,255); fill-rule: nonzero; opacity: 1;" vector-effect="non-scaling-stroke"  transform=" translate(-292.1, -113.16)" d="M 409.27 132.08 L 404.65 122.69000000000001 L 387.26 122.69000000000001 L 389.02 119.02000000000001 L 402.96 119.02000000000001 L 392.69 97.89000000000001 L 376.11 132.08 L 371.71000000000004 132.08 L 390.20000000000005 94.22000000000001 L 395.19000000000005 94.22000000000001 L 413.68000000000006 132.08 L 409.27000000000004 132.08 z M 356 132.08 L 356 94.22 L 360.04 94.22 L 360.04 132.07999999999998 L 356 132.07999999999998 z M 328.49 94.22000000000001 C 331.13 94.22000000000001 333.39 95.16000000000001 335.28000000000003 97.05000000000001 C 337.16 98.93 338.1 101.22000000000001 338.1 103.91000000000001 C 338.1 107.19000000000001 336.78000000000003 109.88000000000001 334.14000000000004 111.98000000000002 C 335.56000000000006 112.86000000000001 336.77000000000004 114.14000000000001 337.77000000000004 115.83000000000001 C 338.77000000000004 117.52000000000001 339.27000000000004 119.41000000000001 339.27000000000004 121.52000000000001 C 339.27000000000004 124.55000000000001 338.27000000000004 127.07000000000001 336.26000000000005 129.08 C 334.25000000000006 131.09000000000003 331.76000000000005 132.09 328.78000000000003 132.09 L 304.93 132.09 L 304.93 94.22 L 328.49 94.22 z M 308.97 98.03000000000002 L 308.97 128.26000000000002 L 327.97 128.26000000000002 C 330.32000000000005 128.26000000000002 332.12 127.66000000000003 333.36 126.46000000000002 C 334.61 125.26000000000002 335.23 123.63000000000002 335.23 121.58000000000003 C 335.23 119.38000000000002 334.55 117.57000000000002 333.18 116.15000000000003 C 331.81 114.73000000000003 330.2 114.02000000000004 328.34000000000003 114.02000000000004 L 315.13000000000005 114.02000000000004 L 315.13000000000005 110.35000000000004 L 327.90000000000003 110.35000000000004 C 329.71000000000004 110.35000000000004 331.19000000000005 109.71000000000004 332.34000000000003 108.44000000000004 C 333.49 107.17000000000004 334.06000000000006 105.63000000000004 334.06000000000006 103.82000000000004 C 334.06000000000006 102.06000000000003 333.50000000000006 100.65000000000003 332.37000000000006 99.60000000000004 C 331.24000000000007 98.55000000000004 329.70000000000005 98.02000000000004 327.75000000000006 98.02000000000004 L 308.97 98.02000000000004 z M 286.3 103.61000000000001 L 286.3 132.08 L 282.26 132.08 L 282.26 108.75000000000001 L 286.3 103.61000000000001 z M 249.32000000000002 94.22000000000001 L 265.61 114.10000000000001 L 281.53000000000003 94.22000000000001 L 286.3 94.22000000000001 L 265.68 120.05000000000001 L 249.32 100.17000000000002 L 249.32 132.09000000000003 L 245.29 132.09000000000003 L 245.29 94.22 L 249.32 94.22 z M 221.96000000000004 132.08 L 221.96000000000004 94.22 L 226 94.22 L 226 132.07999999999998 L 221.96 132.07999999999998 z M 176.1 94.22 L 185.64 104.93 L 183.14999999999998 107.94000000000001 L 170.74999999999997 94.22000000000001 L 176.09999999999997 94.22000000000001 z M 191.88 112.34 L 209.93 132.08 L 204.57 132.08 L 189.38 115.42000000000002 L 175.66 132.08 L 170.52 132.08 L 201.77 94.22000000000001 L 206.91 94.22000000000001 L 191.88 112.34000000000002 z" stroke-linecap="round" />
</g>
</g>
</g>
</svg>